<?xml version="1.0" encoding="UTF-8"?>
<svg id="Layer_2" data-name="Layer 2" xmlns="http://www.w3.org/2000/svg" viewBox="0 0 20.33 20.4">
  <defs>
    <style>
      .cls-1 {
        fill: #333;
      }
    </style>
  </defs>
  <g id="Layer_1-2" data-name="Layer 1">
    <g id="Layer_2-2" data-name="Layer 2">
      <g id="Layer_1-2" data-name="Layer 1-2">
        <path class="cls-1" d="M17.34,0c-2.16,0-3.06,.89-3.06,3.06,.1,1.13-.26,2.26-1,3.12-.79,.68-1.81,1.04-2.85,1-.08,0-.16,0-.24,0-.08,0-.17,0-.25,0-1.04,.05-2.07-.31-2.85-1-.74-.86-1.1-1.99-1-3.12,.1-2.17-.8-3.06-2.96-3.06S.05,.89,.05,3.06s.91,3.06,3.08,3.06c2.77,0,4,1.1,4.05,3.74-.01,.1-.01,.21,0,.31v.26c.05,1.04-.31,2.07-1,2.85-.86,.74-1.99,1.1-3.12,1-2.17,0-3.06,.9-3.06,3.06s.89,3.06,3.06,3.06,3.06-.89,3.06-3.06c0-2.77,1.1-3.95,3.74-4,.1,.01,.21,.01,.31,0h.3c2.64,.1,3.72,1.3,3.74,4,0,2.17,.9,3.06,3.06,3.06s3.06-.89,3.06-3.06-.89-3.06-3.06-3.06c-1.13,.1-2.25-.26-3.11-1-.67-.79-1.02-1.81-.95-2.85,.01-.09,.01-.17,0-.26-.01-.1-.01-.21,0-.31,.09-2.64,1.29-3.72,4-3.74,2.17,0,3.06-.89,3.06-3.06s-.76-3.06-2.93-3.06Z"/>
      </g>
    </g>
  </g>
</svg>