<svg xmlns="http://www.w3.org/2000/svg" viewBox="0 0 20.33 20.35"><defs><style>.cls-1{fill:#ea8f8f;}</style></defs><g id="Layer_2" data-name="Layer 2"><g id="Layer_1-2" data-name="Layer 1"><path class="cls-1" d="M17.29,0c-2.16,0-3.06.89-3.06,3.06a4.2,4.2,0,0,1-1,3.12,4.12,4.12,0,0,1-2.85,1,1.06,1.06,0,0,1-.24,0,1.1,1.1,0,0,0-.25,0,4,4,0,0,1-2.85-1,4.2,4.2,0,0,1-1-3.12C6.14.89,5.24,0,3.08,0S0,.89,0,3.06.91,6.12,3.08,6.12c2.77,0,4,1.1,4.05,3.74a1.6,1.6,0,0,0,0,.31v.26a4,4,0,0,1-1,2.85,4.2,4.2,0,0,1-3.12,1c-2.17,0-3.06.9-3.06,3.06s.89,3.06,3.06,3.06,3.06-.89,3.06-3.06c0-2.77,1.1-3.95,3.74-4a1.6,1.6,0,0,0,.31,0h.3c2.64.1,3.72,1.3,3.74,4,0,2.17.9,3.06,3.06,3.06s3.06-.89,3.06-3.06-.89-3.06-3.06-3.06a4.16,4.16,0,0,1-3.11-1,4,4,0,0,1-.95-2.85,1.13,1.13,0,0,0,0-.26,1.6,1.6,0,0,1,0-.31c.09-2.64,1.29-3.72,4-3.74,2.17,0,3.06-.89,3.06-3.06S19.46,0,17.29,0Z"/></g></g></svg>