<?xml version="1.0" encoding="UTF-8"?>
<svg id="Layer_2" data-name="Layer 2" xmlns="http://www.w3.org/2000/svg" viewBox="0 0 400 400">
  <defs>
    <style>
      .cls-1 {
        fill: #fff;
      }

      .cls-2 {
        fill: #333;
        font-family: Cairo-ExtraLight, Cairo;
        font-size: 17.03px;
      }
    </style>
  </defs>
  <g id="Layer_1-2" data-name="Layer 1">
    <circle class="cls-1" cx="200" cy="200" r="200"/>
    <text class="cls-2" transform="translate(178.12 46.48) rotate(-6.52)"><tspan x="0" y="0">L</tspan></text>
    <text class="cls-2" transform="translate(190.83 45.2) rotate(-1.62)"><tspan x="0" y="0">E</tspan></text>
    <text class="cls-2" transform="translate(204.74 45.01) rotate(3.35)"><tspan x="0" y="0">T</tspan></text>
    <text class="cls-2" transform="translate(218.25 46.05) rotate(7.29)"><tspan x="0" y="0">’</tspan></text>
    <text class="cls-2" transform="translate(225.99 47.1) rotate(11.28)"><tspan x="0" y="0">S</tspan></text>
    <text class="cls-2" transform="translate(239.45 50.05) rotate(15.4)"><tspan x="0" y="0"> </tspan></text>
    <text class="cls-2" transform="translate(247.44 52.3) rotate(19.76)"><tspan x="0" y="0">G</tspan></text>
    <text class="cls-2" transform="translate(261.51 57.61) rotate(25.14)"><tspan x="0" y="0">E</tspan></text>
    <text class="cls-2" transform="translate(274.02 63.71) rotate(30.21)"><tspan x="0" y="0">T</tspan></text>
    <text class="cls-2" transform="translate(285.57 70.73) rotate(34.25)"><tspan x="0" y="0"> </tspan></text>
    <text class="cls-2" transform="translate(292.41 75.53) rotate(37.33)"><tspan x="0" y="0">I</tspan></text>
    <text class="cls-2" transform="translate(299 80.6) rotate(41.78)"><tspan x="0" y="0">N</tspan></text>
    <text class="cls-2" transform="translate(310.62 91.41) rotate(46.22)"><tspan x="0" y="0"> </tspan></text>
    <text class="cls-2" transform="translate(316.33 97.47) rotate(50.23)"><tspan x="0" y="0">T</tspan></text>
    <text class="cls-2" transform="translate(324.72 107.77) rotate(55.56)"><tspan x="0" y="0">O</tspan></text>
    <text class="cls-2" transform="translate(333.46 120.94) rotate(61.31)"><tspan x="0" y="0">U</tspan></text>
    <text class="cls-2" transform="translate(340.62 134.54) rotate(66.72)"><tspan x="0" y="0">C</tspan></text>
    <text class="cls-2" transform="translate(345.92 147.28) rotate(72.27)"><tspan x="0" y="0">H</tspan></text>
    <text class="cls-2" transform="translate(350.48 162.63) rotate(76.81)"><tspan x="0" y="0">!</tspan></text>
    <text class="cls-2" transform="translate(352.28 170.9) rotate(79.94)"><tspan x="0" y="0"> </tspan></text>
    <text class="cls-2" transform="translate(353.66 179.09) rotate(83.84)"><tspan x="0" y="0">L</tspan></text>
    <text class="cls-2" transform="translate(354.86 191.8) rotate(88.73)"><tspan x="0" y="0">E</tspan></text>
    <text class="cls-2" transform="translate(354.96 205.73) rotate(93.72)"><tspan x="0" y="0">T</tspan></text>
    <text class="cls-2" transform="translate(353.83 219.22) rotate(97.65)"><tspan x="0" y="0">’</tspan></text>
    <text class="cls-2" transform="translate(352.74 226.94) rotate(101.64)"><tspan x="0" y="0">S</tspan></text>
    <text class="cls-2" transform="translate(349.7 240.37) rotate(105.75)"><tspan x="0" y="0"> </tspan></text>
    <text class="cls-2" transform="translate(347.41 248.35) rotate(110.11)"><tspan x="0" y="0">G</tspan></text>
    <text class="cls-2" transform="translate(342.01 262.4) rotate(115.5)"><tspan x="0" y="0">E</tspan></text>
    <text class="cls-2" transform="translate(335.82 274.89) rotate(120.58)"><tspan x="0" y="0">T</tspan></text>
    <text class="cls-2" transform="translate(328.72 286.4) rotate(124.61)"><tspan x="0" y="0"> </tspan></text>
    <text class="cls-2" transform="translate(323.87 293.2) rotate(127.69)"><tspan x="0" y="0">I</tspan></text>
    <text class="cls-2" transform="translate(318.77 299.76) rotate(132.14)"><tspan x="0" y="0">N</tspan></text>
    <text class="cls-2" transform="translate(307.88 311.31) rotate(136.58)"><tspan x="0" y="0"> </tspan></text>
    <text class="cls-2" transform="translate(301.79 316.99) rotate(140.6)"><tspan x="0" y="0">T</tspan></text>
    <text class="cls-2" transform="translate(291.46 325.29) rotate(145.91)"><tspan x="0" y="0">O</tspan></text>
    <text class="cls-2" transform="translate(278.2 333.97) rotate(151.68)"><tspan x="0" y="0">U</tspan></text>
    <text class="cls-2" transform="translate(264.55 341.04) rotate(157.1)"><tspan x="0" y="0">C</tspan></text>
    <text class="cls-2" transform="translate(251.8 346.25) rotate(162.63)"><tspan x="0" y="0">H</tspan></text>
    <text class="cls-2" transform="translate(236.4 350.71) rotate(167.18)"><tspan x="0" y="0">!</tspan></text>
    <text class="cls-2" transform="translate(228.15 352.46) rotate(170.3)"><tspan x="0" y="0"> </tspan></text>
    <text class="cls-2" transform="translate(219.94 353.79) rotate(174.2)"><tspan x="0" y="0">L</tspan></text>
    <text class="cls-2" transform="translate(207.23 354.9) rotate(179.07)"><tspan x="0" y="0">E</tspan></text>
    <text class="cls-2" transform="translate(193.31 354.92) rotate(-175.93)"><tspan x="0" y="0">T</tspan></text>
    <text class="cls-2" transform="translate(179.81 353.71) rotate(-171.99)"><tspan x="0" y="0">’</tspan></text>
    <text class="cls-2" transform="translate(172.08 352.56) rotate(-167.99)"><tspan x="0" y="0">S</tspan></text>
    <text class="cls-2" transform="translate(158.68 349.44) rotate(-163.88)"><tspan x="0" y="0"> </tspan></text>
    <text class="cls-2" transform="translate(150.7 347.09) rotate(-159.52)"><tspan x="0" y="0">G</tspan></text>
    <text class="cls-2" transform="translate(136.71 341.61) rotate(-154.14)"><tspan x="0" y="0">E</tspan></text>
    <text class="cls-2" transform="translate(124.27 335.35) rotate(-149.06)"><tspan x="0" y="0">T</tspan></text>
    <text class="cls-2" transform="translate(112.81 328.18) rotate(-145.03)"><tspan x="0" y="0"> </tspan></text>
    <text class="cls-2" transform="translate(106.01 323.28) rotate(-141.94)"><tspan x="0" y="0">I</tspan></text>
    <text class="cls-2" transform="translate(99.51 318.15) rotate(-137.51)"><tspan x="0" y="0">N</tspan></text>
    <text class="cls-2" transform="translate(88.02 307.19) rotate(-133.07)"><tspan x="0" y="0"> </tspan></text>
    <text class="cls-2" transform="translate(82.39 301.06) rotate(-129.05)"><tspan x="0" y="0">T</tspan></text>
    <text class="cls-2" transform="translate(74.13 290.65) rotate(-123.72)"><tspan x="0" y="0">O</tspan></text>
    <text class="cls-2" transform="translate(65.55 277.37) rotate(-117.96)"><tspan x="0" y="0">U</tspan></text>
    <text class="cls-2" transform="translate(58.56 263.67) rotate(-112.54)"><tspan x="0" y="0">C</tspan></text>
    <text class="cls-2" transform="translate(53.44 250.9) rotate(-107.01)"><tspan x="0" y="0">H</tspan></text>
    <text class="cls-2" transform="translate(49.06 235.47) rotate(-102.46)"><tspan x="0" y="0">!</tspan></text>
    <text class="cls-2" transform="translate(47.37 227.19) rotate(-99.34)"><tspan x="0" y="0"> </tspan></text>
    <text class="cls-2" transform="translate(46.09 218.96) rotate(-95.44)"><tspan x="0" y="0">L</tspan></text>
    <text class="cls-2" transform="translate(45.08 206.24) rotate(-90.93)"><tspan x="0" y="0">E</tspan></text>
    <text class="cls-2" transform="translate(45.12 192.32) rotate(-85.57)"><tspan x="0" y="0">T</tspan></text>
    <text class="cls-2" transform="translate(46.42 178.85) rotate(-81.63)"><tspan x="0" y="0">’</tspan></text>
    <text class="cls-2" transform="translate(47.61 171.13) rotate(-77.63)"><tspan x="0" y="0">S</tspan></text>
    <text class="cls-2" transform="translate(50.82 157.73) rotate(-73.51)"><tspan x="0" y="0"> </tspan></text>
    <text class="cls-2" transform="translate(53.21 149.8) rotate(-69.16)"><tspan x="0" y="0">G</tspan></text>
    <text class="cls-2" transform="translate(58.8 135.8) rotate(-63.77)"><tspan x="0" y="0">E</tspan></text>
    <text class="cls-2" transform="translate(65.14 123.4) rotate(-58.7)"><tspan x="0" y="0">T</tspan></text>
    <text class="cls-2" transform="translate(72.38 111.99) rotate(-54.67)"><tspan x="0" y="0"> </tspan></text>
    <text class="cls-2" transform="translate(77.31 105.25) rotate(-51.59)"><tspan x="0" y="0">I</tspan></text>
    <text class="cls-2" transform="translate(82.5 98.76) rotate(-47.15)"><tspan x="0" y="0">N</tspan></text>
    <text class="cls-2" transform="translate(93.53 87.34) rotate(-42.71)"><tspan x="0" y="0"> </tspan></text>
    <text class="cls-2" transform="translate(99.69 81.75) rotate(-38.69)"><tspan x="0" y="0">T</tspan></text>
    <text class="cls-2" transform="translate(110.13 73.57) rotate(-33.36)"><tspan x="0" y="0">O</tspan></text>
    <text class="cls-2" transform="translate(123.48 65.07) rotate(-27.6)"><tspan x="0" y="0">U</tspan></text>
    <text class="cls-2" transform="translate(137.22 58.16) rotate(-22.18)"><tspan x="0" y="0">C</tspan></text>
    <text class="cls-2" transform="translate(150.03 53.12) rotate(-16.64)"><tspan x="0" y="0">H</tspan></text>
    <text class="cls-2" transform="translate(165.47 48.85) rotate(-12.1)"><tspan x="0" y="0">!</tspan></text>
    <text class="cls-2" transform="translate(173.76 47.2) rotate(-8.98)"><tspan x="0" y="0"> </tspan></text>
  </g>
</svg>