<svg viewBox="0 0 32 32" xml:space="preserve" xmlns="http://www.w3.org/2000/svg" enable-background="new 0 0 32 32"><path d="M29.9 18.1c-1.4-1.4-3.8-1.4-5.1 0l-.8.8-.8-.8c-1.4-1.4-3.8-1.4-5.1 0-1.4 1.4-1.4 3.8 0 5.2l5.2 5.4c.2.2.4.3.7.3s.5-.1.7-.3l5.2-5.4c1.4-1.4 1.4-3.8 0-5.2z" fill="#ffffff" class="fill-000000"></path><path d="M16.6 24.7c-1.5-1.6-1.9-3.8-1.3-5.7H15c-.2 0-.5-.1-.7-.2l-1.6-1.4-5.1 4.4c-.1.1-.4.2-.6.2-.3 0-.6-.1-.8-.3-.4-.4-.3-1 .1-1.4l4.9-4.2-4.9-4.2c-.4-.4-.5-1-.1-1.4.4-.4 1-.5 1.4-.1l7.3 6.4 7.3-6.4c.4-.4 1-.3 1.4.1.4.4.3 1-.1 1.4l-3.8 3.3c.3 0 .5-.1.8-.1 1.2 0 2.4.4 3.4 1.1 1-.7 2.1-1.1 3.4-1.1h.6V9c0-1.7-1.3-3-3-3H5C3.3 6 2 7.3 2 9v14c0 1.7 1.3 3 3 3h12.9l-1.3-1.3z" fill="#ffffff" class="fill-000000"></path></svg>